# xmcd
#
# Track frame offsets:
#	150
#	17132
#	31730
#	53037
#
# Disc length: 1026 seconds
#
# Revision: 0
# Processed by: cddbd v1.5PL3 Copyright (c) Steve Scherf et al.
# Submitted via: dBpowerAMP V4.0
#
DISCID=25040004
DTITLE=public enemy - s.y.b.
DYEAR=1900
DGENRE=
TTITLE0=Shake your booty
TTITLE1=mannom
TTITLE2=fight the power
TTITLE3=don't believe the hype
EXTD=
EXTT0=
EXTT1=
EXTT2=
EXTT3=
PLAYORDER=
